<svg viewBox="0 0 1280 800" version="1.1" xmlns="http://www.w3.org/2000/svg" xmlns:xlink="http://www.w3.org/1999/xlink" xml:space="preserve" xmlns:serif="http://www.serif.com/" style="fill-rule:evenodd;clip-rule:evenodd;stroke-linecap:round;stroke-linejoin:round;stroke-miterlimit:1.5;"><g transform="matrix(0.426328,0,0,0.426328,48.4673,-20.2825)"><path d="M489.301,644.542l18.412,-205.844l-212.453,0l16.524,-136.915l134.554,0l-8.97,76.955l71.762,0l9.914,-101.505l-275.245,0l-23.134,186.015l214.814,0l-16.052,156.743l-142.58,0l8.498,-86.87l-72.706,0l-11.331,111.421l287.993,0Z" style="fill:#231f20;fill-rule:nonzero;"/><path d="M780.126,644.542l11.331,-84.982l-67.513,0l-8.026,61.376l-81.677,0l26.911,-204.428l78.844,0l-9.914,77.9l-59.487,0l-6.138,23.606l130.305,0l15.58,-125.112l-213.398,0l-33.048,251.64l216.23,0Z" style="fill:#231f20;fill-rule:nonzero;"/><path d="M1064.34,644.542l30.216,-251.64l-214.343,0l-7.081,23.606l151.078,0l-7.082,59.015l-146.829,0l-22.19,169.019l128.417,0l7.554,-23.606l-65.625,0l16.052,-121.807l79.788,0l-17.468,145.413l67.513,0Z" style="fill:#231f20;fill-rule:nonzero;"/><path d="M1348.09,644.542l30.687,-251.64l-67.513,0l-27.855,228.034l-81.204,0l30.215,-228.034l-67.513,0l-33.048,251.64l216.231,0Z" style="fill:#231f20;fill-rule:nonzero;"/><path d="M1483.58,644.542l29.743,-228.034l84.038,0l8.026,-23.606l-156.272,0l-33.048,251.64l67.513,0Z" style="fill:#231f20;fill-rule:nonzero;"/><path d="M1831.54,644.542l12.747,-92.064l-67.513,0l-9.442,68.458l-81.677,0l26.439,-204.428l78.844,0l-7.554,58.071l67.513,0l10.858,-81.677l-213.87,0l-32.576,251.64l216.231,0Z" style="fill:#231f20;fill-rule:nonzero;"/><path d="M2114.81,644.542l30.688,-251.64l-146.829,0l19.357,-149.19l-67.513,0l-51.933,400.83l67.513,0l29.271,-228.034l79.788,0l-27.855,228.034l67.513,0Z" style="fill:#231f20;fill-rule:nonzero;"/><path d="M2294.21,348.523l9.914,-70.818l-71.762,0l-9.914,70.818l71.762,0Zm-40.13,296.019l33.048,-251.64l-67.985,0l-33.049,251.64l67.986,0Z" style="fill:#231f20;fill-rule:nonzero;"/><path d="M2543.02,644.542l30.687,-251.64l-213.87,0l-33.048,251.64l67.513,0l29.744,-228.034l79.316,0l-27.855,228.034l67.513,0Z" style="fill:#231f20;fill-rule:nonzero;"/><path d="M772.572,1186.24l18.413,-205.844l-212.454,0l16.524,-136.914l134.554,0l-8.97,76.955l71.762,0l9.915,-101.506l-275.246,0l-23.134,186.015l214.815,0l-16.052,156.744l-142.58,0l8.498,-86.87l-72.707,0l-11.33,111.42l287.992,0Z" style="fill:#231f20;fill-rule:nonzero;"/><path d="M1063.87,1186.24l12.747,-92.063l-67.513,0l-9.442,68.457l-81.677,0l26.439,-204.427l78.844,0l-7.554,58.07l67.513,0l10.859,-81.676l-213.871,0l-32.576,251.639l216.231,0Z" style="fill:#231f20;fill-rule:nonzero;"/><path d="M1347.61,1186.24l30.215,-251.639l-213.87,0l-32.576,251.639l216.231,0Zm-64.681,-23.606l-81.204,0l26.438,-204.427l79.316,0l-24.55,204.427Z" style="fill:#231f20;fill-rule:nonzero;"/><path d="M1482.64,1186.24l29.743,-228.033l84.037,0l8.026,-23.606l-156.271,0l-33.048,251.639l67.513,0Z" style="fill:#231f20;fill-rule:nonzero;"/><path d="M1830.12,1186.24l11.331,-84.981l-67.513,0l-8.026,61.375l-81.676,0l26.91,-204.427l78.844,0l-9.914,77.899l-59.487,0l-6.138,23.606l130.305,0l15.58,-125.111l-213.398,0l-33.048,251.639l216.23,0Z" style="fill:#231f20;fill-rule:nonzero;"/><path d="M1055.84,1727.93l18.412,-205.844l-212.453,0l16.524,-136.915l134.554,0l-8.97,76.956l71.762,0l9.914,-101.506l-275.245,0l-23.134,186.015l214.814,0l-16.052,156.744l-142.58,0l8.498,-86.87l-72.706,0l-11.331,111.42l287.993,0Z" style="fill:#231f20;fill-rule:nonzero;"/><path d="M1346.2,1727.93l30.688,-251.64l-146.829,0l19.357,-149.189l-67.513,0l-51.933,400.829l67.513,0l29.271,-228.034l79.788,0l-27.855,228.034l67.513,0Z" style="fill:#231f20;fill-rule:nonzero;"/><path d="M1630.88,1727.93l30.216,-251.64l-214.342,0l-7.082,23.606l151.078,0l-7.082,59.015l-146.829,0l-22.19,169.019l128.417,0l7.554,-23.606l-65.625,0l16.052,-121.807l79.788,0l-17.468,145.413l67.513,0Z" style="fill:#231f20;fill-rule:nonzero;"/><path d="M1765.91,1727.93l29.744,-228.034l84.037,0l8.026,-23.606l-156.271,0l-33.049,251.64l67.513,0Z" style="fill:#231f20;fill-rule:nonzero;"/><path d="M2113.39,1727.93l11.331,-84.982l-67.513,0l-8.026,61.376l-81.677,0l26.911,-204.428l78.844,0l-9.915,77.9l-59.487,0l-6.137,23.606l130.305,0l15.58,-125.112l-213.398,0l-33.049,251.64l216.231,0Z" style="fill:#231f20;fill-rule:nonzero;"/></g><rect x="0" y="0" width="1280" height="800" style="fill:none;stroke:#231f20;stroke-width:4.17px;"/></svg>
