<svg viewBox="0 0 1280 281" version="1.1" xmlns="http://www.w3.org/2000/svg" xmlns:xlink="http://www.w3.org/1999/xlink" xml:space="preserve" xmlns:serif="http://www.serif.com/" style="fill-rule:evenodd;clip-rule:evenodd;stroke-linejoin:round;stroke-miterlimit:1.41421;"><path d="M191.454,249.258l10.712,-119.758l-123.604,0l9.614,-79.657l78.282,0l-5.218,44.773l41.75,0l5.769,-59.056l-160.137,0l-13.459,108.223l124.978,0l-9.339,91.192l-82.952,0l4.944,-50.54l-42.3,0l-6.592,64.823l167.552,0Z" style="fill-rule:nonzero;"/><path d="M407.349,249.258l10.713,-119.758l-123.605,0l9.614,-79.657l78.283,0l-5.219,44.773l41.751,0l5.768,-59.056l-160.136,0l-13.459,108.223l124.977,0l-9.339,91.192l-82.952,0l4.944,-50.54l-42.3,0l-6.592,64.823l167.552,0Z" style="fill-rule:nonzero;"/><path d="M623.245,249.258l10.712,-119.758l-123.604,0l9.614,-79.657l78.282,0l-5.219,44.773l41.751,0l5.768,-59.056l-160.136,0l-13.459,108.223l124.978,0l-9.339,91.192l-82.952,0l4.944,-50.54l-42.3,0l-6.593,64.823l167.553,0Z" style="fill-rule:nonzero;"/><path d="M792.171,249.258l17.853,-146.402l-85.424,0l11.262,-86.798l-39.279,0l-30.214,233.2l39.279,0l17.03,-132.668l46.42,0l-16.206,132.668l39.279,0Z" style="fill-rule:nonzero;"/><path d="M957.8,249.258l17.58,-146.402l-124.703,0l-4.121,13.734l87.897,0l-4.12,34.334l-85.425,0l-12.909,98.334l74.711,0l4.395,-13.733l-38.18,0l9.339,-70.867l46.421,0l-10.163,84.6l39.278,0Z" style="fill-rule:nonzero;"/><path d="M1036.36,249.258l17.304,-132.668l48.893,0l4.669,-13.734l-90.918,0l-19.227,146.402l39.279,0Z" style="fill-rule:nonzero;"/><path d="M1238.52,249.258l6.592,-49.441l-39.278,0l-4.67,35.708l-47.519,0l15.657,-118.935l45.871,0l-5.768,45.321l-34.61,0l-3.57,13.734l75.81,0l9.064,-72.789l-124.153,0l-19.227,146.402l125.801,0Z" style="fill-rule:nonzero;"/></svg>
